<?xml version="1.0" ?><!DOCTYPE svg  PUBLIC '-//W3C//DTD SVG 1.1//EN'  'http://www.w3.org/Graphics/SVG/1.1/DTD/svg11.dtd'><svg aria-labelledby="simpleicons-gmail-icon" enable-background="new 0 0 24 24" height="3.33333in" role="img" style="shape-rendering:geometricPrecision; text-rendering:geometricPrecision; image-rendering:optimizeQuality; fill-rule:evenodd; clip-rule:evenodd" version="1.1" viewBox="0 0 3333 3333" width="3.33333in" xml:space="preserve" xmlns="http://www.w3.org/2000/svg" xmlns:xlink="http://www.w3.org/1999/xlink"><defs><style type="text/css">
   <![CDATA[
    .fil0 {fill:black}
    .fil1 {fill:white}
   ]]>
  </style></defs><g id="Layer_x0020_1"><circle class="fil0" cx="1667" cy="1667" r="1667"/><g id="_608329040"><path class="fil1" d="M2548 1116l0 1101c0,63 -48,110 -111,110l-110 0 0 -999 -660 474 -661 -474 0 999 -110 0c-63,0 -110,-47 -110,-110l0 -1101c0,-31 12,-59 31,-78 20,-20 48,-32 79,-32l37 0 734 532 734 -532 36 0c32,0 59,12 79,32 20,19 32,47 32,78z"/></g></g></svg>